<svg width="84" height="84" viewBox="0 0 84 84" fill="none" xmlns="http://www.w3.org/2000/svg">
<path d="M75.4769 42.426C75.4769 44.1282 74.6706 45.92 72.9684 46.9056C71.3557 47.8911 70.4598 49.5933 70.4598 51.3851C70.4598 52.1915 70.639 53.0874 71.087 53.8937C71.5349 54.7 71.7141 55.5063 71.7141 56.4023C71.7141 59.09 69.5639 61.5986 66.6074 61.6882C65.2635 61.7778 63.9196 62.3153 63.0237 63.2112C62.1278 64.1071 61.5007 65.3614 61.5007 66.7949C61.4111 69.841 58.9025 71.9016 56.2148 71.9016C55.4084 71.9016 54.5125 71.7224 53.7062 71.2745C52.8999 70.8265 52.0935 70.6473 51.1976 70.6473C49.4058 70.6473 47.7036 71.5432 46.7181 73.1559C45.643 74.8581 43.9407 75.6644 42.2385 75.6644C40.5362 75.6644 38.7444 74.8581 37.7589 73.1559C36.7734 71.5432 35.0711 70.6473 33.2793 70.6473C33.1001 70.6473 32.921 70.6473 32.7418 70.6473C32.1146 70.7369 31.4875 70.9161 30.8603 71.2745C30.054 71.7224 29.1581 71.9016 28.3518 71.9016C25.664 71.9016 23.1555 69.7514 23.0659 66.7949C22.9763 65.451 22.4387 64.1071 21.5428 63.2112C20.6469 62.3153 19.3926 61.6882 17.9592 61.6882C15.0026 61.5986 12.8524 59.09 12.8524 56.4023C12.8524 55.5959 13.0316 54.7 13.4796 53.8937C13.9275 53.0874 14.1067 52.281 14.1067 51.3851C14.1067 49.5933 13.2108 47.8911 11.5982 46.9056C9.80632 45.92 9 44.1282 9 42.426C9 40.7237 9.80632 38.9319 11.5086 37.9464C13.1212 36.9609 14.0171 35.2586 14.0171 33.4668C14.0171 32.6605 13.8379 31.7646 13.39 30.9583C12.942 30.1519 12.7628 29.3456 12.7628 28.4497C12.7628 25.7619 14.913 23.2534 17.8696 23.1638C19.2134 23.0742 20.5573 22.5366 21.4532 21.6407C22.3491 20.7448 22.9763 19.4905 22.9763 18.0571C23.0659 15.1005 25.5744 12.9503 28.2622 12.9503C29.0685 12.9503 29.9644 13.1295 30.7708 13.5775C31.5771 14.0254 32.3834 14.2046 33.2793 14.2046C35.0711 14.2046 36.7734 13.3087 37.7589 11.6961C38.834 9.99382 40.5362 9.1875 42.2385 9.1875C43.9407 9.1875 45.7325 9.99382 46.7181 11.6961C48.2411 14.0254 51.1976 14.8318 53.7062 13.5775C54.5125 13.1295 55.3188 12.9503 56.2148 12.9503C58.9025 12.9503 61.4111 15.1005 61.5007 18.0571C61.5007 19.4009 62.1278 20.7448 63.0237 21.6407C63.9196 22.5366 65.1739 23.1638 66.6074 23.1638C69.5639 23.2534 71.7141 25.7619 71.7141 28.4497C71.7141 29.256 71.5349 30.1519 71.087 30.9583C70.639 31.7646 70.4598 32.5709 70.4598 33.4668C70.4598 35.2586 71.3557 36.9609 72.9684 37.9464C73.2372 38.1256 73.5059 38.3048 73.6851 38.4839C74.9394 39.559 75.4769 40.9925 75.4769 42.426Z" fill="#E6E8EB"/>
<rect x="39" y="28" width="6" height="19" rx="3" fill="white"/>
<rect x="39" y="51" width="6" height="6" rx="3" fill="white"/>
</svg>
