<svg width="32" height="32" viewBox="0 0 32 32" fill="none" xmlns="http://www.w3.org/2000/svg">
<circle cx="16" cy="16" r="15.5" fill="#E6E6E6" stroke="#E6E8EB"/>
<path d="M19.0399 13.4406C20.1003 13.4406 20.9599 12.581 20.9599 11.5206C20.9599 10.4602 20.1003 9.60059 19.0399 9.60059C17.9795 9.60059 17.1199 10.4602 17.1199 11.5206C17.1199 12.581 17.9795 13.4406 19.0399 13.4406Z" fill="#B8BFC4"/>
<path d="M11.3599 17.9211C12.4203 17.9211 13.2799 17.0614 13.2799 16.0011C13.2799 14.9407 12.4203 14.0811 11.3599 14.0811C10.2996 14.0811 9.43994 14.9407 9.43994 16.0011C9.43994 17.0614 10.2996 17.9211 11.3599 17.9211Z" fill="#B8BFC4"/>
<path d="M19.0399 22.4005C20.1003 22.4005 20.9599 21.5409 20.9599 20.4805C20.9599 19.4202 20.1003 18.5605 19.0399 18.5605C17.9795 18.5605 17.1199 19.4202 17.1199 20.4805C17.1199 21.5409 17.9795 22.4005 19.0399 22.4005Z" fill="#B8BFC4"/>
<path d="M13.0173 16.9668L17.3885 19.514" stroke="#B8BFC4" stroke-width="1.2" stroke-linecap="round" stroke-linejoin="round"/>
<path d="M17.3821 12.4873L13.0173 15.0345" stroke="#B8BFC4" stroke-width="1.2" stroke-linecap="round" stroke-linejoin="round"/>
</svg>
