<svg width="32" height="32" viewBox="0 0 32 32" fill="none" xmlns="http://www.w3.org/2000/svg">
<circle cx="16" cy="16" r="15.5" fill="white" stroke="#E6E8EB"/>
<path d="M19.04 13.4396C20.1004 13.4396 20.96 12.58 20.96 11.5196C20.96 10.4592 20.1004 9.59961 19.04 9.59961C17.9796 9.59961 17.12 10.4592 17.12 11.5196C17.12 12.58 17.9796 13.4396 19.04 13.4396Z" fill="#B8BFC4"/>
<path d="M11.36 17.9201C12.4204 17.9201 13.28 17.0605 13.28 16.0001C13.28 14.9397 12.4204 14.0801 11.36 14.0801C10.2996 14.0801 9.44 14.9397 9.44 16.0001C9.44 17.0605 10.2996 17.9201 11.36 17.9201Z" fill="#B8BFC4"/>
<path d="M19.04 22.4005C20.1004 22.4005 20.96 21.5409 20.96 20.4805C20.96 19.4202 20.1004 18.5605 19.04 18.5605C17.9796 18.5605 17.12 19.4202 17.12 20.4805C17.12 21.5409 17.9796 22.4005 19.04 22.4005Z" fill="#B8BFC4"/>
<path d="M13.0175 16.9668L17.3887 19.514" stroke="#B8BFC4" stroke-width="1.2" stroke-linecap="round" stroke-linejoin="round"/>
<path d="M17.3823 12.4863L13.0175 15.0335" stroke="#B8BFC4" stroke-width="1.2" stroke-linecap="round" stroke-linejoin="round"/>
</svg>
