<svg width="16" height="16" viewBox="0 0 16 16" fill="none" xmlns="http://www.w3.org/2000/svg">
<path d="M9.31348 13.6956L8.73188 13.2221L9.31348 13.6956ZM7.15668 13.6956L7.73829 13.2221L7.15668 13.6956ZM12.7236 6.2385C12.7236 6.60702 12.6011 7.10507 12.347 7.71446C12.0972 8.31333 11.7425 8.96815 11.3306 9.63479C10.5067 10.9679 9.48963 12.2914 8.73188 13.2221L9.89508 14.1692C10.6707 13.2165 11.7337 11.8358 12.6066 10.4233C13.0429 9.71719 13.4407 8.9889 13.7314 8.29177C14.0177 7.60516 14.2236 6.89431 14.2236 6.2385H12.7236ZM8.23508 1.75C10.714 1.75 12.7236 3.75957 12.7236 6.2385H14.2236C14.2236 2.93114 11.5424 0.25 8.23508 0.25V1.75ZM3.74658 6.2385C3.74658 3.75957 5.75615 1.75 8.23508 1.75V0.25C4.92772 0.25 2.24658 2.93114 2.24658 6.2385H3.74658ZM7.73829 13.2221C6.98054 12.2914 5.96341 10.9679 5.13961 9.63479C4.72764 8.96815 4.37292 8.31333 4.12319 7.71446C3.86908 7.10507 3.74658 6.60702 3.74658 6.2385H2.24658C2.24658 6.89431 2.45242 7.60516 2.73873 8.29177C3.02943 8.9889 3.42722 9.71719 3.8636 10.4233C4.73649 11.8358 5.79942 13.2165 6.57508 14.1692L7.73829 13.2221ZM8.73188 13.2221C8.46851 13.5456 8.00166 13.5456 7.73829 13.2221L6.57508 14.1692C7.4387 15.2299 9.03146 15.2299 9.89508 14.1692L8.73188 13.2221ZM9.23145 6.2387C9.23145 6.78887 8.78545 7.23487 8.23528 7.23487V8.73487C9.61388 8.73487 10.7315 7.6173 10.7315 6.2387H9.23145ZM8.23528 5.24254C8.78545 5.24254 9.23145 5.68853 9.23145 6.2387H10.7315C10.7315 4.86011 9.61388 3.74254 8.23528 3.74254V5.24254ZM7.23912 6.2387C7.23912 5.68853 7.68512 5.24254 8.23528 5.24254V3.74254C6.85669 3.74254 5.73912 4.86011 5.73912 6.2387H7.23912ZM8.23528 7.23487C7.68512 7.23487 7.23912 6.78887 7.23912 6.2387H5.73912C5.73912 7.6173 6.85669 8.73487 8.23528 8.73487V7.23487Z" fill="black"/>
</svg>
