<svg width="32" height="32" viewBox="0 0 32 32" fill="none" xmlns="http://www.w3.org/2000/svg">
<circle cx="16" cy="16" r="15.5" fill="white" stroke="#E6E8EB"/>
<path d="M16 9.88281C12.2543 9.88281 9.21783 12.277 9.21783 15.2303C9.21783 17.1396 10.4873 18.815 12.3968 19.7611C12.2929 20.1194 11.7293 22.066 11.7068 22.2189C11.7068 22.2189 11.6933 22.3338 11.7677 22.3776C11.8421 22.4214 11.9296 22.3874 11.9296 22.3874C12.143 22.3576 14.404 20.7694 14.7954 20.4936C15.1863 20.549 15.5889 20.5778 16 20.5778C19.7457 20.5778 22.7821 18.1837 22.7821 15.2303C22.7821 12.277 19.7457 9.88281 16 9.88281Z" fill="#B8BFC4"/>
</svg>
