<svg width="20" height="20" viewBox="0 0 20 20" fill="none" xmlns="http://www.w3.org/2000/svg">
<path fill-rule="evenodd" clip-rule="evenodd" d="M17.4997 16.668H11.6663C11.239 16.668 10.8868 16.3463 10.8386 15.9318L10.833 15.8346V9.16797C10.833 9.10826 10.8394 9.0488 10.8521 8.99063L10.8758 8.90445L12.5424 3.90445C12.6456 3.5951 12.9181 3.37728 13.2363 3.34024L13.333 3.33464H16.6663C17.2017 3.33464 17.5889 3.82825 17.4827 4.3362L17.4569 4.43149L16.1559 8.33464H17.4997C17.927 8.33464 18.2793 8.65634 18.3274 9.07078L18.333 9.16797V15.8346C18.333 16.262 18.0113 16.6142 17.5969 16.6624L17.4997 16.668H11.6663H17.4997ZM8.33301 16.668L2.49967 16.668C2.07231 16.668 1.72009 16.3463 1.67195 15.9318L1.66634 15.8346V9.16797C1.66634 9.10826 1.67276 9.0488 1.68543 8.99063L1.7091 8.90445L3.37577 3.90445C3.47889 3.5951 3.75144 3.37728 4.06964 3.34024L4.16634 3.33464H7.49967C8.03501 3.33464 8.42228 3.82825 8.31603 4.3362L8.29024 4.43149L6.9892 8.33464H8.33301C8.76037 8.33464 9.1126 8.65634 9.16074 9.07078L9.16634 9.16797L9.16634 15.8346C9.16634 16.262 8.84464 16.6142 8.43019 16.6624L8.33301 16.668L2.49967 16.668L8.33301 16.668ZM12.4997 15.0013H16.6663V10.0013H14.9997C14.4643 10.0013 14.0771 9.50769 14.1833 8.99974L14.2091 8.90445L15.5102 5.0013H13.9336L12.4997 9.3032V15.0013ZM3.33301 15.0013H7.49967V10.0013L5.83301 10.0013C5.29767 10.0013 4.9104 9.50769 5.01665 8.99974L5.04244 8.90445L6.34349 5.0013H4.76697L3.33301 9.3032L3.33301 15.0013Z" fill="#262C31"/>
</svg>
