<svg width="20" height="20" viewBox="0 0 20 20" fill="none" xmlns="http://www.w3.org/2000/svg">
<path fill-rule="evenodd" clip-rule="evenodd" d="M12.5 16.668C12.9602 16.668 13.3333 17.0411 13.3333 17.5013C13.3333 17.9615 12.9602 18.3346 12.5 18.3346H7.49999C7.03976 18.3346 6.66666 17.9615 6.66666 17.5013C6.66666 17.0411 7.03976 16.668 7.49999 16.668H12.5ZM9.99971 1.66797C13.9272 1.66797 16.6667 4.03562 16.6667 7.81682C16.6667 9.35918 16.097 10.6368 15.011 12.0424L14.814 12.2918C14.6396 12.508 13.9771 13.2858 13.7539 13.561L13.6273 13.7241C13.4519 13.9595 13.3608 14.1216 13.3366 14.207L13.3162 14.3365C13.2376 14.7191 12.8995 15.0013 12.5 15.0013H7.49999C7.10053 15.0013 6.76242 14.7191 6.68381 14.3365L6.66337 14.207C6.6392 14.1216 6.54812 13.9595 6.37263 13.724L6.2461 13.5609L5.18602 12.2917L4.98904 12.0423C3.90311 10.6367 3.33333 9.35917 3.33333 7.81686C3.33333 4.03571 6.07275 1.66797 9.99971 1.66797ZM9.99971 3.33464C6.94362 3.33464 4.99999 5.01455 4.99999 7.81686C4.99999 8.91824 5.42728 9.88087 6.30249 11.0162L6.48351 11.2456C6.62399 11.4199 7.19957 12.0963 7.48425 12.4424L7.60632 12.5935C7.81634 12.8627 7.98045 13.1033 8.09948 13.3346H11.9005L11.9774 13.1946C12.087 13.0059 12.2257 12.8089 12.3937 12.5935L12.8705 12.0171C13.1358 11.7012 13.4228 11.3619 13.5165 11.2457L13.6975 11.0162C14.5728 9.88092 15 8.91829 15 7.81686C15 5.01449 13.0563 3.33464 9.99971 3.33464Z" fill="black"/>
</svg>
