<svg width="16" height="14" viewBox="0 0 16 14" fill="none" xmlns="http://www.w3.org/2000/svg">
<path d="M6.86 1.57152L1.21333 10.9982C1.09691 11.1998 1.03531 11.4284 1.03466 11.6612C1.03401 11.894 1.09433 12.1229 1.20962 12.3252C1.32491 12.5275 1.49115 12.696 1.6918 12.8141C1.89246 12.9322 2.12053 12.9956 2.35333 12.9982H13.6467C13.8795 12.9956 14.1075 12.9322 14.3082 12.8141C14.5088 12.696 14.6751 12.5275 14.7904 12.3252C14.9057 12.1229 14.966 11.894 14.9653 11.6612C14.9647 11.4284 14.9031 11.1998 14.7867 10.9982L9.14 1.57152C9.02115 1.37559 8.85381 1.2136 8.65413 1.10117C8.45444 0.988749 8.22916 0.929688 8 0.929688C7.77084 0.929688 7.54555 0.988749 7.34587 1.10117C7.14618 1.2136 6.97885 1.37559 6.86 1.57152V1.57152Z" stroke="#F24147" stroke-linecap="round" stroke-linejoin="round"/>
<path d="M8 5V8" stroke="#F24147" stroke-linecap="round" stroke-linejoin="round"/>
<path d="M8 10.332H8.00667" stroke="#F24147" stroke-linecap="round" stroke-linejoin="round"/>
</svg>
