<svg width="24" height="24" viewBox="0 0 24 24" fill="none" xmlns="http://www.w3.org/2000/svg">
<path d="M10.7311 3.78857C11.2404 2.73714 12.7596 2.73714 13.2689 3.78857L14.9109 7.17841C15.1159 7.60155 15.5242 7.89382 15.9961 7.95509L19.7761 8.44596C20.9486 8.59821 21.4181 10.0216 20.5604 10.8236L17.7951 13.4095C17.45 13.7323 17.294 14.2052 17.3806 14.6663L18.0748 18.3595C18.2902 19.505 17.0611 20.3847 16.0217 19.829L12.6707 18.0373C12.2524 17.8136 11.7476 17.8136 11.3293 18.0373L7.97831 19.829C6.93894 20.3847 5.70984 19.505 5.92516 18.3595L6.61937 14.6663C6.70602 14.2052 6.55005 13.7323 6.20487 13.4095L3.43962 10.8236C2.58193 10.0216 3.0514 8.59821 4.22386 8.44596L8.00391 7.95509C8.47577 7.89382 8.88412 7.60155 9.08909 7.17841L10.7311 3.78857Z" fill="#FFE142"/>
<mask id="mask0_268_34267" style="mask-type:alpha" maskUnits="userSpaceOnUse" x="3" y="3" width="18" height="17">
<path d="M10.7311 3.78857C11.2404 2.73714 12.7596 2.73714 13.2689 3.78857L14.9109 7.17841C15.1159 7.60155 15.5242 7.89382 15.9961 7.95509L19.7761 8.44596C20.9486 8.59821 21.4181 10.0216 20.5604 10.8236L17.7951 13.4095C17.45 13.7323 17.294 14.2052 17.3806 14.6663L18.0748 18.3595C18.2902 19.505 17.0611 20.3847 16.0217 19.829L12.6707 18.0373C12.2524 17.8136 11.7476 17.8136 11.3293 18.0373L7.97831 19.829C6.93894 20.3847 5.70984 19.505 5.92516 18.3595L6.61937 14.6663C6.70602 14.2052 6.55005 13.7323 6.20487 13.4095L3.43962 10.8236C2.58193 10.0216 3.0514 8.59821 4.22386 8.44596L8.00391 7.95509C8.47577 7.89382 8.88412 7.60155 9.08909 7.17841L10.7311 3.78857Z" fill="#636C73"/>
</mask>
<g mask="url(#mask0_268_34267)">
<rect x="12" y="3" width="11" height="18" fill="#D1D5D9"/>
</g>
</svg>
