<svg width="20" height="20" viewBox="0 0 20 20" fill="none" xmlns="http://www.w3.org/2000/svg">
<path fill-rule="evenodd" clip-rule="evenodd" d="M9.16699 1.66602H10.8337C12.1651 1.66602 13.2534 2.70678 13.3294 4.01912L13.3337 4.16602V4.99935H15.8337C17.2144 4.99935 18.3337 6.11864 18.3337 7.49935V15.8327C18.3337 17.2134 17.2144 18.3327 15.8337 18.3327H4.16699C2.78628 18.3327 1.66699 17.2134 1.66699 15.8327V7.49935C1.66699 6.11864 2.78628 4.99935 4.16699 4.99935H6.66699V4.16602C6.66699 2.83461 7.70776 1.7463 9.0201 1.67026L9.16699 1.66602H10.8337H9.16699ZM16.667 13.3327H3.33366V15.8327C3.33366 16.2929 3.70675 16.666 4.16699 16.666H15.8337C16.2939 16.666 16.667 16.2929 16.667 15.8327V13.3327ZM15.8337 6.66602H4.16699C3.70675 6.66602 3.33366 7.03911 3.33366 7.49935V11.666H16.667V7.49935C16.667 7.03911 16.2939 6.66602 15.8337 6.66602ZM10.8337 3.33268H9.16699C8.73963 3.33268 8.3874 3.65438 8.33927 4.06883L8.33366 4.16602V4.99935H11.667V4.16602C11.667 3.73865 11.3453 3.38643 10.9308 3.33829L10.8337 3.33268Z" fill="#262C31"/>
</svg>
