<svg width="12" height="12" viewBox="0 0 12 12" fill="none" xmlns="http://www.w3.org/2000/svg">
<path d="M5.15405 0.52571C5.49358 -0.175237 6.50641 -0.175237 6.84594 0.52571L7.94061 2.7856C8.07725 3.0677 8.34949 3.26255 8.66406 3.30339L11.1841 3.63064C11.9657 3.73214 12.2787 4.68106 11.7069 5.21577L9.86342 6.9397C9.6333 7.15489 9.52932 7.47016 9.58709 7.7775L10.0499 10.2396C10.1934 11.0033 9.37404 11.5898 8.68112 11.2193L6.44712 10.0249C6.16825 9.87576 5.83175 9.87576 5.55288 10.0249L3.31888 11.2193C2.62596 11.5898 1.80656 11.0033 1.95011 10.2396L2.41291 7.7775C2.47068 7.47016 2.3667 7.15489 2.13658 6.9397L0.293082 5.21577C-0.278712 4.68106 0.0342695 3.73214 0.815905 3.63064L3.33594 3.30339C3.65051 3.26255 3.92275 3.0677 4.05939 2.7856L5.15405 0.52571Z" fill="#FFDB59"/>
</svg>
