<svg width="72" height="72" viewBox="0 0 72 72" fill="none" xmlns="http://www.w3.org/2000/svg">
<circle cx="36.709" cy="34.5059" r="14.6212" transform="rotate(-45 36.709 34.5059)" stroke="#B6D0FF" stroke-width="4"/>
<path d="M49 46L55.7677 52.9293" stroke="#B6D0FF" stroke-width="6" stroke-linecap="round"/>
<path d="M29.8011 37.6283C29.0492 38.1531 27.9957 37.9724 27.6371 37.1286C27.338 36.4245 27.1402 35.6786 27.0523 34.913C26.9009 33.5951 27.0796 32.2601 27.5724 31.0284C28.0651 29.7967 28.8565 28.7069 29.8752 27.857C30.4669 27.3633 31.1246 26.9597 31.8268 26.6562C32.6685 26.2925 33.5559 26.8884 33.7384 27.787V27.787C33.9209 28.6856 33.3129 29.5399 32.5337 30.0231C32.3484 30.138 32.1707 30.2661 32.0023 30.4067C31.4064 30.9038 30.9435 31.5413 30.6552 32.2618C30.367 32.9823 30.2624 33.7631 30.351 34.5341C30.376 34.752 30.4163 34.9673 30.4712 35.1783C30.7021 36.0657 30.553 37.1036 29.8011 37.6283V37.6283Z" fill="#659DFF"/>
</svg>
